<svg xmlns="http://www.w3.org/2000/svg" viewBox="0 0 256 256" width="256" height="256" role="img" aria-label="Markdown Preview Style — a pendant lamp hangs over an open page, warm light on comfortable type">
  <defs>
    <linearGradient id="sky" x1="0" y1="0" x2="0" y2="1">
      <stop offset="0" stop-color="#1e2a3a"/>
      <stop offset="1" stop-color="#121a24"/>
    </linearGradient>
    <clipPath id="round"><circle cx="128" cy="128" r="128"/></clipPath>
  </defs>
  <g clip-path="url(#round)">
  <g transform="translate(-57.6 -57.6) scale(1.45)">
    <rect width="256" height="256" fill="url(#sky)"/>
    <g fill="#dfe8f2">
      <circle cx="34" cy="38" r="2" opacity="0.6"/>
      <circle cx="216" cy="34" r="1.8" opacity="0.5"/>
      <circle cx="190" cy="72" r="1.4" opacity="0.35"/>
    </g>
    <line x1="128" y1="0" x2="128" y2="56" stroke="#546a86" stroke-width="3"/>
    <path d="M104 86 L152 86 L140 58 L116 58 Z" fill="#b6c6d8"/>
    <circle cx="128" cy="90" r="5" fill="#ffd970"/>
    <polygon points="128,92 62,176 194,176" fill="#ffd970" opacity="0.2"/>
    <polygon points="128,92 92,176 164,176" fill="#ffd970" opacity="0.22"/>
    <path d="M128 124 q-34 -13 -68 0 v54 q34 -13 68 0 z" fill="#eef3f8"/>
    <path d="M128 124 q34 -13 68 0 v54 q-34 -13 -68 0 z" fill="#dfe8f2"/>
    <line x1="128" y1="124" x2="128" y2="178" stroke="#b6c6d8" stroke-width="2.5"/>
    <g fill="#e8a913" opacity="0.9">
      <rect x="72" y="132" width="42" height="4.5" rx="2"/>
      <rect x="72" y="144" width="32" height="4.5" rx="2"/>
      <rect x="72" y="156" width="38" height="4.5" rx="2"/>
      <rect x="142" y="132" width="42" height="4.5" rx="2"/>
      <rect x="142" y="144" width="34" height="4.5" rx="2"/>
      <rect x="142" y="156" width="28" height="4.5" rx="2"/>
    </g>
    <rect y="180" width="256" height="76" fill="#33445a"/>
    <rect x="70" y="180" width="116" height="5" fill="#2b3a4d"/>
  </g>
  </g>
</svg>
